<svg id="Capa_1" enable-background="new 0 0 512 512" height="512" viewBox="0 0 512 512" width="512" xmlns="http://www.w3.org/2000/svg"><g><g><circle cx="228.731" cy="240.321" fill="#f9ef63" r="132.237"/><path d="m265.912 367.26c-11.791 3.452-24.272 5.302-37.186 5.302-73.028 0-132.232-59.212-132.232-132.241 0-73.028 59.203-132.241 132.232-132.241 12.914 0 25.395 1.85 37.186 5.302-54.932 16.062-95.055 66.815-95.055 126.939s40.122 110.877 95.055 126.939z" fill="#f1d333"/><g fill="#f9ef63"><path d="m230.024 74.278h-2.586c-9.121 0-16.684-7.062-17.309-16.162l-1.92-27.99c-.688-10.026 7.259-18.537 17.309-18.537h6.426c10.049 0 17.996 8.511 17.309 18.537l-1.92 27.99c-.624 9.1-8.188 16.162-17.309 16.162z"/><path d="m146.83 95.877-2.24 1.293c-7.899 4.56-17.98 2.226-23.071-5.342l-15.658-23.28c-5.608-8.339-2.981-19.683 5.721-24.707l5.565-3.213c8.703-5.025 19.841-1.627 24.258 7.399l12.332 25.2c4.01 8.192.991 18.089-6.907 22.65z"/><path d="m85.58 156.18-1.293 2.24c-4.56 7.899-14.458 10.918-22.651 6.909l-25.2-12.332c-9.026-4.417-12.423-15.555-7.399-24.258l3.213-5.565c5.025-8.703 16.369-11.33 24.707-5.721l23.28 15.658c7.569 5.088 9.904 15.17 5.343 23.069z"/><path d="m62.688 239.028v2.586c0 9.121-7.062 16.684-16.162 17.309l-27.99 1.92c-10.025.687-18.536-7.26-18.536-17.309v-6.426c0-10.049 8.511-17.996 18.537-17.309l27.99 1.92c9.099.625 16.161 8.188 16.161 17.309z"/><path d="m373.175 158.419-1.293-2.24c-4.56-7.899-2.226-17.98 5.342-23.071l23.28-15.658c8.339-5.608 19.683-2.981 24.707 5.721l3.213 5.565c5.025 8.703 1.627 19.841-7.399 24.258l-25.2 12.332c-8.191 4.011-18.089.992-22.65-6.907z"/><path d="m312.873 97.17-2.24-1.293c-7.899-4.56-10.918-14.458-6.909-22.651l12.332-25.2c4.417-9.026 15.555-12.423 24.258-7.399l5.565 3.213c8.703 5.025 11.33 16.369 5.721 24.707l-15.658 23.28c-5.089 7.569-15.171 9.903-23.069 5.343z"/></g></g><path d="m458.926 356.718c1.118-7.818 1.708-15.807 1.708-23.934 0-92.577-75.049-167.626-167.626-167.626-74.995 0-138.481 49.252-159.893 117.173-7.382-1.558-15.033-2.384-22.879-2.384-60.879 0-110.232 49.352-110.232 110.231 0 60.88 49.352 110.232 110.232 110.232h328.498c40.464 0 73.267-32.802 73.267-73.267-.001-33.457-22.435-61.655-53.075-70.425z" fill="#f1f1f4"/><path d="m380.821 189.983c-1.185-.031-2.38-.041-3.575-.041-74.997 0-138.477 49.253-159.894 117.173-7.376-1.566-15.03-2.39-22.88-2.39-60.873 0-110.229 49.356-110.229 110.229 0 34.47 15.824 65.241 40.589 85.453h-14.587c-60.884 0-110.24-49.356-110.24-110.229 0-60.883 49.356-110.239 110.24-110.239 7.84 0 15.494.835 22.87 2.39 21.417-67.92 84.908-117.173 159.894-117.173 32.192 0 62.273 9.076 87.812 24.827z" fill="#dfeaef"/></g></svg>