<svg id="Capa_1" enable-background="new 0 0 500.329 500.329" height="512" viewBox="0 0 500.329 500.329" width="512" xmlns="http://www.w3.org/2000/svg"><g><g><path d="m463.04 172.114h-43.044c-8.98-14.171-24.792-23.587-42.813-23.587-4.482 0-8.826.588-12.965 1.681-11.509-18.861-32.281-31.454-55.998-31.454-12.662 0-24.479 3.599-34.501 9.815-17.515-30.102-50.414-50.155-87.948-49.328-52.659 1.159-95.623 44.051-96.854 96.692-.008.353-.015.706-.019 1.059-.251 19.423 15.555 35.253 34.986 35.253l149.23 12 17.872-12h114.934 20.207 37.44c10.957 0 19.863-8.777 20.068-19.682.21-11.245-9.345-20.449-20.595-20.449z" fill="#80b6fc"/></g><g><path d="m463.047 172.114h-43.051c-8.98-14.171-24.792-23.587-42.814-23.587-4.482 0-8.826.588-12.965 1.681-11.509-18.861-32.281-31.454-55.998-31.454-12.662 0-24.479 3.599-34.501 9.815-17.515-30.102-50.414-50.154-87.948-49.328-25.773.567-49.22 11.136-66.592 27.948 11.296-4.852 23.65-7.663 36.592-7.948 30.518-.672 57.972 12.459 76.584 33.572 6.984 7.923 17.889 11.263 28.055 8.394 5.662-1.598 11.636-2.453 17.81-2.453 18.999 0 36.11 8.082 48.081 20.994 5.337 5.757 12.897 8.8 20.747 8.78h.134c14.16 0 26.956 5.813 36.145 15.178 5.179 5.278 12.156 8.409 19.55 8.409h30.162c11.144 0 20.617 9.031 20.591 20.131h9.935c11.313 0 20.44-9.357 20.06-20.752-.362-10.901-9.672-19.38-20.577-19.38z" fill="#62a4fb"/></g><g><path d="m290.986 212.214h-33.477c-6.984-11.021-19.281-18.344-33.298-18.344-3.486 0-6.864.458-10.083 1.307-8.951-14.669-25.106-24.463-43.552-24.463-9.848 0-19.038 2.799-26.833 7.633-13.622-23.412-39.209-39.007-68.4-38.364-40.954.902-74.369 34.26-75.326 75.201-.006.275-.011.549-.015.823-.196 15.106 12.098 27.418 27.21 27.418h219.349 15.715 29.118c8.522 0 15.449-6.826 15.608-15.307.164-8.746-7.266-15.904-16.016-15.904z" fill="#bed9fd"/></g><g><path d="m290.958 212.214h-33.45c-6.984-11.021-19.281-18.344-33.298-18.344-3.486 0-6.864.458-10.083 1.307-8.951-14.669-25.106-24.463-43.552-24.463-9.848 0-19.038 2.799-26.833 7.633-13.622-23.412-39.209-39.007-68.4-38.364-21.51.474-40.93 9.909-54.67 24.685 7.734-2.845 16.031-4.495 24.67-4.685 24.49-.539 46.443 10.35 60.922 27.696 4.498 5.389 11.777 7.741 18.448 5.556 4.992-1.635 10.323-2.521 15.863-2.521 15.226 0 28.892 6.674 38.233 17.254 3.519 3.986 8.601 6.129 13.915 5.93.493-.019.989-.028 1.487-.028 11.554 0 21.94 4.976 29.145 12.898 3.191 3.508 7.756 5.446 12.498 5.446h25.132c7.117 0 13.361 4.737 15.355 11.211h15.054c8.871 0 16.014-7.398 15.592-16.359-.394-8.394-7.624-14.852-16.028-14.852z" fill="#9ec8fc"/></g><g><path d="m492.829 310.758h-155.531c-13.606 0-24.677-11.07-24.677-24.678 0-13.607 11.07-24.677 24.677-24.677 4.143 0 7.5 3.358 7.5 7.5s-3.357 7.5-7.5 7.5c-5.336 0-9.677 4.341-9.677 9.677s4.341 9.678 9.677 9.678h155.531c4.143 0 7.5 3.358 7.5 7.5s-3.357 7.5-7.5 7.5z" fill="#80b6fc"/></g><g><path d="m492.829 348.497h-275.531c-13.606 0-24.677-11.07-24.677-24.677s11.07-24.678 24.677-24.678c4.143 0 7.5 3.358 7.5 7.5s-3.357 7.5-7.5 7.5c-5.336 0-9.677 4.341-9.677 9.678 0 5.336 4.341 9.677 9.677 9.677h275.531c4.143 0 7.5 3.358 7.5 7.5s-3.357 7.5-7.5 7.5z" fill="#80b6fc"/></g><g><path d="m337.298 421.113c-13.606 0-24.677-11.07-24.677-24.677 0-13.608 11.07-24.678 24.677-24.678h155.531c4.143 0 7.5 3.358 7.5 7.5s-3.357 7.5-7.5 7.5h-155.531c-5.336 0-9.677 4.341-9.677 9.677s4.341 9.678 9.677 9.678c4.143 0 7.5 3.358 7.5 7.5s-3.357 7.5-7.5 7.5z" fill="#80b6fc"/></g></g></svg>